<svg id="Group_712" data-name="Group 712" xmlns="http://www.w3.org/2000/svg" xmlns:xlink="http://www.w3.org/1999/xlink" width="47.313" height="56" viewBox="0 0 47.313 56">
  <defs>
    <clipPath id="clip-path">
      <rect id="Rectangle_475" data-name="Rectangle 475" width="47.314" height="56" fill="none"/>
    </clipPath>
    <clipPath id="clip-path-2">
      <rect id="Rectangle_472" data-name="Rectangle 472" width="47.313" height="56" fill="none"/>
    </clipPath>
    <clipPath id="clip-path-3">
      <path id="Path_195" data-name="Path 195" d="M4,1A3,3,0,0,0,1,4V52c0,1.657,3,3,3,3H40a3,3,0,0,0,3-3V4a3,3,0,0,0-3-3Z" fill="none"/>
    </clipPath>
    <clipPath id="clip-path-4">
      <rect id="Rectangle_473" data-name="Rectangle 473" width="45.93" height="56" fill="none"/>
    </clipPath>
  </defs>
  <g id="Group_711" data-name="Group 711" clip-path="url(#clip-path)">
    <g id="Group_703" data-name="Group 703">
      <g id="Group_702" data-name="Group 702" clip-path="url(#clip-path-2)">
        <path id="Path_190" data-name="Path 190" d="M43,52a3,3,0,0,1-3,3H4s-3-1.343-3-3V4A3,3,0,0,1,4,1H40a3,3,0,0,1,3,3Z" fill="#d1d3d7"/>
      </g>
    </g>
    <g id="Group_708" data-name="Group 708">
      <g id="Group_707" data-name="Group 707" clip-path="url(#clip-path-3)">
        <g id="Group_706" data-name="Group 706" opacity="0.5">
          <g id="Group_705" data-name="Group 705">
            <g id="Group_704" data-name="Group 704" clip-path="url(#clip-path-4)">
              <path id="Path_191" data-name="Path 191" d="M45.93,0H0V56H44l-.535-13.137L25.128,11.1l10,3.9Z" fill="#fff"/>
            </g>
          </g>
        </g>
        <path id="Path_192" data-name="Path 192" d="M9,16H7V14H9ZM9,26H7v2H9ZM9,38H7v2H9Z" fill="#747c88"/>
        <path id="Path_193" data-name="Path 193" d="M37,16H13V14H37Zm0,10H13v2H37Zm0,12H13v2H37Z" fill="#747c88"/>
        <path id="Path_194" data-name="Path 194" d="M37,20H13v2H37Zm0,12H13v2H37Zm0,12H13v2H37Z" fill="#a3a7af"/>
      </g>
    </g>
    <g id="Group_710" data-name="Group 710">
      <g id="Group_709" data-name="Group 709" clip-path="url(#clip-path-2)">
        <path id="Path_196" data-name="Path 196" d="M43.012.3,33.976,10.613,28.94,6.653,25.128,11.1l9.326,7.641L47.314,4.07Z" fill="#36b558"/>
      </g>
    </g>
  </g>
</svg>
