<svg id="Group_597" data-name="Group 597" xmlns="http://www.w3.org/2000/svg" xmlns:xlink="http://www.w3.org/1999/xlink" width="54" height="52" viewBox="0 0 54 52">
  <defs>
    <clipPath id="clip-path">
      <rect id="Rectangle_426" data-name="Rectangle 426" width="54" height="52" fill="none"/>
    </clipPath>
    <clipPath id="clip-path-2">
      <rect id="Rectangle_414" data-name="Rectangle 414" width="41.999" height="30" transform="translate(6 21)" fill="none"/>
    </clipPath>
    <clipPath id="clip-path-3">
      <rect id="Rectangle_411" data-name="Rectangle 411" width="36" height="24" transform="translate(9 24)" fill="none"/>
    </clipPath>
    <clipPath id="clip-path-4">
      <rect id="Rectangle_413" data-name="Rectangle 413" width="44" height="38" transform="translate(5 14)" fill="none"/>
    </clipPath>
    <clipPath id="clip-path-5">
      <rect id="Rectangle_417" data-name="Rectangle 417" width="48.001" height="30" transform="translate(3 16)" fill="none"/>
    </clipPath>
    <clipPath id="clip-path-6">
      <rect id="Rectangle_416" data-name="Rectangle 416" width="42" height="24" transform="translate(6 19)" fill="none"/>
    </clipPath>
    <clipPath id="clip-path-7">
      <rect id="Rectangle_422" data-name="Rectangle 422" width="54" height="32" transform="translate(0 7)" fill="none"/>
    </clipPath>
    <clipPath id="clip-path-9">
      <rect id="Rectangle_421" data-name="Rectangle 421" width="48" height="26" transform="translate(3 10)" fill="none"/>
    </clipPath>
    <clipPath id="clip-path-10">
      <path id="Path_139" data-name="Path 139" d="M27,0a3,3,0,0,0-3,3V18.8l-7.625-4.4a3,3,0,0,0-3,5.2l12.125,7a3,3,0,0,0,3,0l12.125-7a3,3,0,0,0-3-5.2L30,18.8V3A3,3,0,0,0,27,0Z" fill="none"/>
    </clipPath>
    <clipPath id="clip-path-11">
      <rect id="Rectangle_425" data-name="Rectangle 425" width="6" height="7" transform="translate(24)" fill="none"/>
    </clipPath>
  </defs>
  <g id="Group_596" data-name="Group 596" clip-path="url(#clip-path)">
    <rect id="Rectangle_410" data-name="Rectangle 410" width="42" height="30" transform="translate(6 21)" fill="#36b558"/>
    <g id="Group_577" data-name="Group 577">
      <g id="Group_576" data-name="Group 576" clip-path="url(#clip-path-2)">
        <g id="Group_572" data-name="Group 572" opacity="0.5">
          <g id="Group_571" data-name="Group 571">
            <g id="Group_570" data-name="Group 570" clip-path="url(#clip-path-3)">
              <path id="Path_136" data-name="Path 136" d="M9,24H45V48H9Zm5,2a3,3,0,0,1-3,3V43a3,3,0,0,1,3,3H40a3,3,0,0,1,3-3V29a3,3,0,0,1-3-3ZM35,36c0,5.523-3.582,10-8,10s-8-4.477-8-10,3.581-10,8-10,8,4.477,8,10" fill="#231f20"/>
            </g>
          </g>
        </g>
        <g id="Group_575" data-name="Group 575" opacity="0.3">
          <g id="Group_574" data-name="Group 574">
            <g id="Group_573" data-name="Group 573" clip-path="url(#clip-path-4)">
              <rect id="Rectangle_412" data-name="Rectangle 412" width="44" height="38" transform="translate(5 14)" fill="#231f20"/>
            </g>
          </g>
        </g>
      </g>
    </g>
    <rect id="Rectangle_415" data-name="Rectangle 415" width="48" height="30" transform="translate(3 16)" fill="#36b558"/>
    <g id="Group_582" data-name="Group 582">
      <g id="Group_581" data-name="Group 581" clip-path="url(#clip-path-5)">
        <g id="Group_580" data-name="Group 580" opacity="0.5">
          <g id="Group_579" data-name="Group 579">
            <g id="Group_578" data-name="Group 578" clip-path="url(#clip-path-6)">
              <path id="Path_137" data-name="Path 137" d="M6,19H48V43H6Zm5,2a3,3,0,0,1-3,3V38a3,3,0,0,1,3,3H43a3,3,0,0,1,3-3V24a3,3,0,0,1-3-3ZM35,31c0,5.523-3.582,10-8,10s-8-4.477-8-10,3.581-10,8-10,8,4.477,8,10" fill="#231f20"/>
            </g>
          </g>
        </g>
      </g>
    </g>
    <rect id="Rectangle_418" data-name="Rectangle 418" width="54" height="32" transform="translate(0 7)" fill="#36b558"/>
    <g id="Group_590" data-name="Group 590">
      <g id="Group_589" data-name="Group 589" clip-path="url(#clip-path-7)">
        <g id="Group_585" data-name="Group 585" opacity="0.15">
          <g id="Group_584" data-name="Group 584">
            <g id="Group_583" data-name="Group 583" clip-path="url(#clip-path-7)">
              <rect id="Rectangle_419" data-name="Rectangle 419" width="54" height="32" transform="translate(0 7)" fill="#fff"/>
            </g>
          </g>
        </g>
        <g id="Group_588" data-name="Group 588" opacity="0.5">
          <g id="Group_587" data-name="Group 587">
            <g id="Group_586" data-name="Group 586" clip-path="url(#clip-path-9)">
              <path id="Path_138" data-name="Path 138" d="M3,10H51V36H3Zm5,2a3,3,0,0,1-3,3V31a3,3,0,0,1,3,3H46a3,3,0,0,1,3-3V15a3,3,0,0,1-3-3ZM37,23c0,6.075-4.479,11-10,11S17,29.075,17,23s4.477-11,10-11,10,4.925,10,11" fill="#231f20"/>
            </g>
          </g>
        </g>
      </g>
    </g>
    <g id="Group_595" data-name="Group 595">
      <g id="Group_594" data-name="Group 594" clip-path="url(#clip-path-10)">
        <rect id="Rectangle_423" data-name="Rectangle 423" width="31" height="27" transform="translate(11.5)" fill="#e8e8eb"/>
        <g id="Group_593" data-name="Group 593" opacity="0.15">
          <g id="Group_592" data-name="Group 592">
            <g id="Group_591" data-name="Group 591" clip-path="url(#clip-path-11)">
              <rect id="Rectangle_424" data-name="Rectangle 424" width="6" height="7" transform="translate(24)" fill="#182438"/>
            </g>
          </g>
        </g>
      </g>
    </g>
  </g>
</svg>
