<svg id="Group_550" data-name="Group 550" xmlns="http://www.w3.org/2000/svg" xmlns:xlink="http://www.w3.org/1999/xlink" width="58" height="34" viewBox="0 0 58 34">
  <defs>
    <clipPath id="clip-path">
      <rect id="Rectangle_401" data-name="Rectangle 401" width="58" height="34" fill="none"/>
    </clipPath>
    <clipPath id="clip-path-2">
      <path id="Path_125" data-name="Path 125" d="M0,0V34H58V17L48,0Z" fill="none"/>
    </clipPath>
    <clipPath id="clip-path-4">
      <rect id="Rectangle_398" data-name="Rectangle 398" width="52" height="28" transform="translate(3 3)" fill="none"/>
    </clipPath>
    <clipPath id="clip-path-6">
      <rect id="Rectangle_399" data-name="Rectangle 399" width="14.858" height="17" transform="translate(43.142)" fill="none"/>
    </clipPath>
  </defs>
  <g id="Group_549" data-name="Group 549" clip-path="url(#clip-path)">
    <path id="Path_122" data-name="Path 122" d="M0,0V34H58V17L48,0Z" fill="#72cb8a"/>
    <g id="Group_543" data-name="Group 543">
      <g id="Group_542" data-name="Group 542" clip-path="url(#clip-path-2)">
        <g id="Group_538" data-name="Group 538" opacity="0.15">
          <g id="Group_537" data-name="Group 537">
            <g id="Group_536" data-name="Group 536" clip-path="url(#clip-path)">
              <path id="Path_123" data-name="Path 123" d="M58,34H0V0H19.179L58,22.541Z" fill="#fff"/>
            </g>
          </g>
        </g>
        <g id="Group_541" data-name="Group 541" opacity="0.5">
          <g id="Group_540" data-name="Group 540">
            <g id="Group_539" data-name="Group 539" clip-path="url(#clip-path-4)">
              <path id="Path_124" data-name="Path 124" d="M3,3H55V31H3ZM39,17c0,6.628-4.479,12-10,12S19,23.628,19,17,23.478,5,29,5s10,5.372,10,12M8,5A3,3,0,0,1,5,8V26a3,3,0,0,1,3,3H50a3,3,0,0,1,3-3V8a3,3,0,0,1-3-3Z" fill="#231f20"/>
            </g>
          </g>
        </g>
      </g>
    </g>
    <path id="Path_126" data-name="Path 126" d="M48,0,43.142,8.741,58,17Z" fill="#c3e9cd"/>
    <g id="Group_548" data-name="Group 548">
      <g id="Group_547" data-name="Group 547" clip-path="url(#clip-path)">
        <g id="Group_546" data-name="Group 546" opacity="0.6">
          <g id="Group_545" data-name="Group 545">
            <g id="Group_544" data-name="Group 544" clip-path="url(#clip-path-6)">
              <path id="Path_127" data-name="Path 127" d="M43.142,8.74,58,17,48,0Z" fill="#fff"/>
            </g>
          </g>
        </g>
      </g>
    </g>
  </g>
</svg>
