<svg id="Group_645" data-name="Group 645" xmlns="http://www.w3.org/2000/svg" xmlns:xlink="http://www.w3.org/1999/xlink" width="64" height="61" viewBox="0 0 64 61">
  <defs>
    <clipPath id="clip-path">
      <rect id="Rectangle_442" data-name="Rectangle 442" width="64" height="61" fill="none"/>
    </clipPath>
    <clipPath id="clip-path-3">
      <path id="Path_151" data-name="Path 151" d="M0,22c0,7.75,1.867,11.3,4,17.495C5.381,43.508,10.125,44,14,44h8.333C25.084,44,26,42.527,26,38c-1,0-4-1-5-3h5V33h3c1,0,1.537-.389.947-2.158S27,22,26,19c-2-6-4.834-8-11.833-8C5.167,11,0,14,0,22" fill="none"/>
    </clipPath>
    <clipPath id="clip-path-4">
      <rect id="Rectangle_430" data-name="Rectangle 430" width="13" height="42" transform="translate(13 11)" fill="none"/>
    </clipPath>
    <clipPath id="clip-path-6">
      <rect id="Rectangle_431" data-name="Rectangle 431" width="18.938" height="18.29" transform="translate(11.813 42.71)" fill="none"/>
    </clipPath>
    <clipPath id="clip-path-7">
      <path id="Path_157" data-name="Path 157" d="M0,61H28.75C20.875,49.625,12.074,47.372,4,42.71A38.9,38.9,0,0,0,0,61" fill="none"/>
    </clipPath>
    <clipPath id="clip-path-9">
      <path id="Path_164" data-name="Path 164" d="M38,25c-1.041,1.805-2.431,4.21-3.471,6.015A1.221,1.221,0,0,0,35.588,33H38v2h5c-.693,1.467-2.546,2.439-4.438,3,.542,2.252,1.355,5,5.438,5h2v9l11-6.506S62,31.75,62,24c0-8-9-11-12-11-8.549,0-9.893,5.412-12,12" fill="none"/>
    </clipPath>
    <clipPath id="clip-path-10">
      <rect id="Rectangle_434" data-name="Rectangle 434" width="21.39" height="27.82" transform="translate(41.61)" fill="none"/>
    </clipPath>
    <clipPath id="clip-path-13">
      <path id="Path_167" data-name="Path 167" d="M42.126,52.038C36.771,55.131,35.25,57.6,35.25,61H64a29.511,29.511,0,0,0-6.575-17.795l-15.3,8.833" fill="none"/>
    </clipPath>
    <clipPath id="clip-path-15">
      <rect id="Rectangle_438" data-name="Rectangle 438" width="14" height="39.483" transform="translate(50 13)" fill="none"/>
    </clipPath>
  </defs>
  <g id="Group_644" data-name="Group 644" clip-path="url(#clip-path)">
    <g id="Group_606" data-name="Group 606">
      <g id="Group_605" data-name="Group 605" clip-path="url(#clip-path)">
        <path id="Path_148" data-name="Path 148" d="M14.167,11c7,0,9.833,2,11.833,8,1,3,3.358,10.074,3.948,11.842S30,33,29,33H26v2H21c1,2,4,3,5,3,0,4.527-.917,6-3.667,6H14c-3.874,0-8.619-.491-10-4.506C1.868,33.3,0,29.75,0,22c0-8,5.167-11,14.167-11" fill="#72cb8a"/>
      </g>
    </g>
    <g id="Group_611" data-name="Group 611">
      <g id="Group_610" data-name="Group 610" clip-path="url(#clip-path-3)">
        <g id="Group_609" data-name="Group 609" opacity="0.3">
          <g id="Group_608" data-name="Group 608">
            <g id="Group_607" data-name="Group 607" clip-path="url(#clip-path-4)">
              <path id="Path_149" data-name="Path 149" d="M26,11H13V45.495L26,53Z" fill="#fff"/>
            </g>
          </g>
        </g>
        <path id="Path_150" data-name="Path 150" d="M22,27c0,1.1-.672,2-1.5,2S19,28.1,19,27s.672-2,1.5-2,1.5.9,1.5,2" fill="#465060"/>
      </g>
    </g>
    <g id="Group_616" data-name="Group 616">
      <g id="Group_615" data-name="Group 615" clip-path="url(#clip-path)">
        <path id="Path_152" data-name="Path 152" d="M11.813,61a56.083,56.083,0,0,1,2.634-18.29c5.318,4.662,11.116,6.915,16.3,18.29Z" fill="#36b558"/>
        <g id="Group_614" data-name="Group 614" opacity="0.5">
          <g id="Group_613" data-name="Group 613">
            <g id="Group_612" data-name="Group 612" clip-path="url(#clip-path-6)">
              <path id="Path_153" data-name="Path 153" d="M11.813,61a56.083,56.083,0,0,1,2.634-18.29c5.318,4.662,11.116,6.915,16.3,18.29Z" fill="#9ce84d"/>
            </g>
          </g>
        </g>
        <path id="Path_154" data-name="Path 154" d="M4,39.494,19,44V60.4H4Z" fill="#e8e8eb"/>
        <path id="Path_155" data-name="Path 155" d="M0,61A38.9,38.9,0,0,1,4,42.71C12.074,47.372,20.875,49.625,28.75,61Z" fill="#465060" fill-rule="evenodd"/>
      </g>
    </g>
    <g id="Group_618" data-name="Group 618">
      <g id="Group_617" data-name="Group 617" clip-path="url(#clip-path-7)">
        <path id="Path_156" data-name="Path 156" d="M28.75,36.75H0V44.4L28.75,61Z" fill="#747c88" fill-rule="evenodd"/>
      </g>
    </g>
    <g id="Group_620" data-name="Group 620">
      <g id="Group_619" data-name="Group 619" clip-path="url(#clip-path)">
        <path id="Path_158" data-name="Path 158" d="M50,13c-8.549,0-9.894,5.412-12,12-1.041,1.805-2.431,4.21-3.472,6.015A1.222,1.222,0,0,0,35.588,33H38v2h5c-.692,1.467-2.546,2.438-4.438,3,.543,2.252,1.355,5,5.438,5h2v9l11-6.506S62,31.75,62,24c0-8-9-11-12-11" fill="#85dae2" fill-rule="evenodd"/>
      </g>
    </g>
    <g id="Group_628" data-name="Group 628">
      <g id="Group_627" data-name="Group 627" clip-path="url(#clip-path-9)">
        <path id="Path_159" data-name="Path 159" d="M63,12c0,6.627-6.053,18.563-11.792,15.25s-9.6-5.75-9.6-11.14C41.61,9.483,44.373,0,51,0A12,12,0,0,1,63,12" fill="#bb88c9"/>
        <g id="Group_623" data-name="Group 623" opacity="0.15">
          <g id="Group_622" data-name="Group 622">
            <g id="Group_621" data-name="Group 621" clip-path="url(#clip-path-10)">
              <path id="Path_160" data-name="Path 160" d="M63,12c0,6.627-6.053,18.563-11.792,15.25s-9.6-5.75-9.6-11.14C41.61,9.483,44.373,0,51,0A12,12,0,0,1,63,12" fill="#7d1cc7"/>
            </g>
          </g>
        </g>
        <g id="Group_626" data-name="Group 626" opacity="0.2">
          <g id="Group_625" data-name="Group 625">
            <g id="Group_624" data-name="Group 624" clip-path="url(#clip-path-10)">
              <path id="Path_161" data-name="Path 161" d="M63,12c0,6.627-6.053,18.563-11.792,15.25s-9.6-5.75-9.6-11.14C41.61,9.483,44.373,0,51,0A12,12,0,0,1,63,12" fill="#231f20"/>
            </g>
          </g>
        </g>
        <rect id="Rectangle_436" data-name="Rectangle 436" width="4" height="12" transform="translate(34 21)" fill="#0bb4c4"/>
        <path id="Path_162" data-name="Path 162" d="M59,56.5H46V43l13-7.5Z" fill="#0bb4c4"/>
        <path id="Path_163" data-name="Path 163" d="M42,28c0,1.1.672,2,1.5,2s1.5-.9,1.5-2-.672-2-1.5-2-1.5.9-1.5,2" fill="#465060"/>
      </g>
    </g>
    <g id="Group_630" data-name="Group 630">
      <g id="Group_629" data-name="Group 629" clip-path="url(#clip-path)">
        <path id="Path_165" data-name="Path 165" d="M64,61a29.522,29.522,0,0,0-6.574-17.795c-3.834,2.213-9.946,5.741-15.3,8.833S35.25,57.6,35.25,61Z" fill="#747c88" fill-rule="evenodd"/>
      </g>
    </g>
    <g id="Group_632" data-name="Group 632">
      <g id="Group_631" data-name="Group 631" clip-path="url(#clip-path-13)">
        <path id="Path_166" data-name="Path 166" d="M35.25,36.75H64V44.4L35.25,61Z" fill="#465060" fill-rule="evenodd"/>
      </g>
    </g>
    <g id="Group_643" data-name="Group 643">
      <g id="Group_642" data-name="Group 642" clip-path="url(#clip-path)">
        <path id="Path_168" data-name="Path 168" d="M50,13c8.508,0,14,3.6,14,11V39.455c0,6.795-5.453,8.093-14,13.028Z" fill="#cfacd9"/>
        <g id="Group_635" data-name="Group 635" opacity="0.15">
          <g id="Group_634" data-name="Group 634">
            <g id="Group_633" data-name="Group 633" clip-path="url(#clip-path-15)">
              <path id="Path_169" data-name="Path 169" d="M50,13c8.508,0,14,3.6,14,11V39.455c0,6.795-5.453,8.093-14,13.028Z" fill="#7d1cc7"/>
            </g>
          </g>
        </g>
        <g id="Group_638" data-name="Group 638" opacity="0.2">
          <g id="Group_637" data-name="Group 637">
            <g id="Group_636" data-name="Group 636" clip-path="url(#clip-path-15)">
              <path id="Path_170" data-name="Path 170" d="M50,13c8.508,0,14,3.6,14,11V39.455c0,6.795-5.453,8.093-14,13.028Z" fill="#231f20"/>
            </g>
          </g>
        </g>
        <g id="Group_641" data-name="Group 641" opacity="0.15">
          <g id="Group_640" data-name="Group 640">
            <g id="Group_639" data-name="Group 639" clip-path="url(#clip-path-15)">
              <path id="Path_171" data-name="Path 171" d="M50,13c8.508,0,14,3.6,14,11V39.455c0,6.795-5.453,8.093-14,13.028Z" fill="#fff"/>
            </g>
          </g>
        </g>
      </g>
    </g>
  </g>
</svg>
