<svg id="Group_743" data-name="Group 743" xmlns="http://www.w3.org/2000/svg" xmlns:xlink="http://www.w3.org/1999/xlink" width="56" height="46.998" viewBox="0 0 56 46.998">
  <defs>
    <clipPath id="clip-path">
      <rect id="Rectangle_485" data-name="Rectangle 485" width="56" height="46.998" fill="none"/>
    </clipPath>
    <clipPath id="clip-path-2">
      <rect id="Rectangle_476" data-name="Rectangle 476" width="56" height="46.998" transform="translate(0 0)" fill="none"/>
    </clipPath>
    <clipPath id="clip-path-3">
      <path id="Path_200" data-name="Path 200" d="M3,0A3,3,0,0,0,0,3V36a3,3,0,0,0,3,3H53a3,3,0,0,0,3-3V16.821L46.289,0Z" fill="none"/>
    </clipPath>
    <clipPath id="clip-path-4">
      <rect id="Rectangle_477" data-name="Rectangle 477" width="39.715" height="22.928" transform="translate(16.285 0)" fill="none"/>
    </clipPath>
    <clipPath id="clip-path-6">
      <rect id="Rectangle_478" data-name="Rectangle 478" width="13.475" height="16.815" transform="translate(42.525 0.006)" fill="none"/>
    </clipPath>
    <clipPath id="clip-path-7">
      <path id="Path_205" data-name="Path 205" d="M41,27,36.7,46.195c-.142.632.325,1,.866.69L44,43.169s1.584,1.055,6.459,3.715c.565.309.974-.055.833-.689L47,27Z" fill="none"/>
    </clipPath>
    <clipPath id="clip-path-8">
      <rect id="Rectangle_480" data-name="Rectangle 480" width="14.649" height="9.773" transform="translate(36.671 32)" fill="none"/>
    </clipPath>
    <clipPath id="clip-path-10">
      <path id="Path_208" data-name="Path 208" d="M34,26A10,10,0,1,0,44,16,10,10,0,0,0,34,26" fill="none"/>
    </clipPath>
    <clipPath id="clip-path-11">
      <rect id="Rectangle_482" data-name="Rectangle 482" width="21.904" height="25.263" transform="translate(33.047 13.365)" fill="none"/>
    </clipPath>
    <clipPath id="clip-path-13">
      <rect id="Rectangle_483" data-name="Rectangle 483" width="12" height="12" transform="translate(38 20)" fill="none"/>
    </clipPath>
  </defs>
  <g id="Group_742" data-name="Group 742" clip-path="url(#clip-path)">
    <g id="Group_714" data-name="Group 714">
      <g id="Group_713" data-name="Group 713" clip-path="url(#clip-path-2)">
        <path id="Path_197" data-name="Path 197" d="M3,0A3,3,0,0,0,0,3V36a3,3,0,0,0,3,3H53a3,3,0,0,0,3-3V16.821L46.289,0Z" fill="#e8e8eb"/>
      </g>
    </g>
    <g id="Group_719" data-name="Group 719">
      <g id="Group_718" data-name="Group 718" clip-path="url(#clip-path-3)">
        <g id="Group_717" data-name="Group 717" opacity="0.15">
          <g id="Group_716" data-name="Group 716">
            <g id="Group_715" data-name="Group 715" clip-path="url(#clip-path-4)">
              <path id="Path_198" data-name="Path 198" d="M56,0H16.285L56,22.928Z" fill="#231f20"/>
            </g>
          </g>
        </g>
        <path id="Path_199" data-name="Path 199" d="M44,14H9V12H44Zm-6,3H14v2H38Zm0,5H14v2H38Z" fill="#465060"/>
      </g>
    </g>
    <g id="Group_724" data-name="Group 724">
      <g id="Group_723" data-name="Group 723" clip-path="url(#clip-path-2)">
        <path id="Path_201" data-name="Path 201" d="M42.927,5.819,46.279.006,56,16.82l-11.973-6.9a3,3,0,0,1-1.1-4.1" fill="#dedcd9"/>
        <g id="Group_722" data-name="Group 722" opacity="0.5">
          <g id="Group_721" data-name="Group 721">
            <g id="Group_720" data-name="Group 720" clip-path="url(#clip-path-6)">
              <path id="Path_202" data-name="Path 202" d="M42.927,5.819,46.279.006,56,16.82l-11.973-6.9a3,3,0,0,1-1.1-4.1" fill="#fff"/>
            </g>
          </g>
        </g>
        <path id="Path_203" data-name="Path 203" d="M37.563,46.885c-.542.313-1.009-.058-.868-.689L41,27h6l4.292,19.2c.141.633-.269,1-.834.688C45.583,44.225,44,43.169,44,43.169l-6.436,3.716" fill="#186ee5"/>
      </g>
    </g>
    <g id="Group_729" data-name="Group 729">
      <g id="Group_728" data-name="Group 728" clip-path="url(#clip-path-7)">
        <g id="Group_727" data-name="Group 727" opacity="0.3" style="isolation: isolate">
          <g id="Group_726" data-name="Group 726">
            <g id="Group_725" data-name="Group 725" clip-path="url(#clip-path-8)">
              <path id="Path_204" data-name="Path 204" d="M51.32,32H36.671v9.773L51.32,33.315Z" fill="#231f20"/>
            </g>
          </g>
        </g>
      </g>
    </g>
    <g id="Group_731" data-name="Group 731">
      <g id="Group_730" data-name="Group 730" clip-path="url(#clip-path-2)">
        <path id="Path_206" data-name="Path 206" d="M44,16A10,10,0,1,1,34,26,10,10,0,0,1,44,16" fill="#186ee5"/>
      </g>
    </g>
    <g id="Group_736" data-name="Group 736">
      <g id="Group_735" data-name="Group 735" clip-path="url(#clip-path-10)">
        <g id="Group_734" data-name="Group 734" opacity="0.3" style="isolation: isolate">
          <g id="Group_733" data-name="Group 733">
            <g id="Group_732" data-name="Group 732" clip-path="url(#clip-path-11)">
              <path id="Path_207" data-name="Path 207" d="M54.951,19.674l-21.9,12.643,0-12.623,21.9,12.621L43.98,38.628l.041-25.263Z" fill="#fff"/>
            </g>
          </g>
        </g>
      </g>
    </g>
    <g id="Group_741" data-name="Group 741">
      <g id="Group_740" data-name="Group 740" clip-path="url(#clip-path-2)">
        <path id="Path_209" data-name="Path 209" d="M44,20a6,6,0,1,1-6,6,6,6,0,0,1,6-6" fill="#186ee5"/>
        <g id="Group_739" data-name="Group 739" opacity="0.3">
          <g id="Group_738" data-name="Group 738">
            <g id="Group_737" data-name="Group 737" clip-path="url(#clip-path-13)">
              <path id="Path_210" data-name="Path 210" d="M44,20a6,6,0,1,1-6,6,6,6,0,0,1,6-6" fill="#231f20"/>
            </g>
          </g>
        </g>
      </g>
    </g>
  </g>
</svg>
